{
	"asset":{
		"generator":"Khronos glTF Blender I/O v3.6.28",
		"version":"2.0"
	},
	"scene":0,
	"scenes":[
		{
			"extras":{
				"bc":{
					"snap":{
						"hit":false
					}
				}
			},
			"name":"Scene",
			"nodes":[
				0
			]
		}
	],
	"nodes":[
		{
			"mesh":0,
			"name":"Bolas"
		}
	],
	"meshes":[
		{
			"name":"Icosphere.002",
			"primitives":[
				{
					"attributes":{
						"POSITION":0,
						"NORMAL":1,
						"TEXCOORD_0":2,
						"TANGENT":3
					},
					"indices":4
				}
			]
		}
	],
	"accessors":[
		{
			"bufferView":0,
			"componentType":5126,
			"count":3840,
			"max":[
				1.8928515911102295,
				0.029054876416921616,
				0.029054874554276466
			],
			"min":[
				-0.02763286791741848,
				-0.029054876416921616,
				-0.029054874554276466
			],
			"type":"VEC3"
		},
		{
			"bufferView":1,
			"componentType":5126,
			"count":3840,
			"type":"VEC3"
		},
		{
			"bufferView":2,
			"componentType":5126,
			"count":3840,
			"type":"VEC2"
		},
		{
			"bufferView":3,
			"componentType":5126,
			"count":3840,
			"type":"VEC4"
		},
		{
			"bufferView":4,
			"componentType":5123,
			"count":3840,
			"type":"SCALAR"
		}
	],
	"bufferViews":[
		{
			"buffer":0,
			"byteLength":46080,
			"byteOffset":0,
			"target":34962
		},
		{
			"buffer":0,
			"byteLength":46080,
			"byteOffset":46080,
			"target":34962
		},
		{
			"buffer":0,
			"byteLength":30720,
			"byteOffset":92160,
			"target":34962
		},
		{
			"buffer":0,
			"byteLength":61440,
			"byteOffset":122880,
			"target":34962
		},
		{
			"buffer":0,
			"byteLength":7680,
			"byteOffset":184320,
			"target":34963
		}
	],
	"buffers":[
		{
			"byteLength":192000,
			"uri":"bolas_pool-213f079ec2221620fd897efb4587999a.bin"
		}
	]
}
