{
	"asset":{
		"generator":"Khronos glTF Blender I/O v4.1.62",
		"version":"2.0"
	},
	"scene":0,
	"scenes":[
		{
			"extras":{
				"bc":{
					"snap":{
						"hit":false
					}
				}
			},
			"name":"Scene",
			"nodes":[
				0,
				1,
				2,
				3,
				4
			]
		}
	],
	"nodes":[
		{
			"name":"Empty",
			"rotation":[
				0.5,
				0.5,
				-0.5,
				0.5
			],
			"translation":[
				-6.110441207885742,
				1.4833810329437256,
				-0.01360858790576458
			]
		},
		{
			"name":"Empty.001",
			"rotation":[
				0,
				0.7071068286895752,
				0,
				0.7071068286895752
			],
			"translation":[
				0.017091097310185432,
				1.681079387664795,
				0.09381113201379776
			]
		},
		{
			"mesh":0,
			"name":"Cube",
			"translation":[
				0,
				2.403606653213501,
				0
			]
		},
		{
			"mesh":1,
			"name":"Plane",
			"scale":[
				0.518528163433075,
				1,
				0.9866098761558533
			],
			"translation":[
				0,
				2.667051315307617,
				0
			]
		},
		{
			"mesh":2,
			"name":"Cylinder.001",
			"scale":[
				0.052430156618356705,
				0.052430156618356705,
				0.052430156618356705
			],
			"translation":[
				0.0013062391662970185,
				2.667051315307617,
				0.0005343705997802317
			]
		}
	],
	"meshes":[
		{
			"name":"Cube.001",
			"primitives":[
				{
					"attributes":{
						"POSITION":0,
						"NORMAL":1,
						"TEXCOORD_0":2
					},
					"indices":3
				}
			]
		},
		{
			"name":"Plane",
			"primitives":[
				{
					"attributes":{
						"POSITION":4,
						"NORMAL":5,
						"TEXCOORD_0":6
					},
					"indices":7
				}
			]
		},
		{
			"name":"Cylinder.004",
			"primitives":[
				{
					"attributes":{
						"POSITION":8,
						"NORMAL":9,
						"TEXCOORD_0":10
					},
					"indices":11
				}
			]
		}
	],
	"accessors":[
		{
			"bufferView":0,
			"componentType":5126,
			"count":2062,
			"max":[
				0.6309952735900879,
				0.3131531774997711,
				1.1013067960739136
			],
			"min":[
				-0.6309952735900879,
				-0.4766947627067566,
				-1.1013067960739136
			],
			"type":"VEC3"
		},
		{
			"bufferView":1,
			"componentType":5126,
			"count":2062,
			"type":"VEC3"
		},
		{
			"bufferView":2,
			"componentType":5126,
			"count":2062,
			"type":"VEC2"
		},
		{
			"bufferView":3,
			"componentType":5123,
			"count":4368,
			"type":"SCALAR"
		},
		{
			"bufferView":4,
			"componentType":5126,
			"count":30,
			"max":[
				1.0261558294296265,
				0,
				1.012363314628601
			],
			"min":[
				-1.0249860286712646,
				0,
				-1.0129421949386597
			],
			"type":"VEC3"
		},
		{
			"bufferView":5,
			"componentType":5126,
			"count":30,
			"type":"VEC3"
		},
		{
			"bufferView":6,
			"componentType":5126,
			"count":30,
			"type":"VEC2"
		},
		{
			"bufferView":7,
			"componentType":5123,
			"count":84,
			"type":"SCALAR"
		},
		{
			"bufferView":8,
			"componentType":5126,
			"count":300,
			"max":[
				10.790233612060547,
				1.0387531518936157,
				19.402633666992188
			],
			"min":[
				-10.790233612060547,
				-1.9355013370513916,
				-19.402633666992188
			],
			"type":"VEC3"
		},
		{
			"bufferView":9,
			"componentType":5126,
			"count":300,
			"type":"VEC3"
		},
		{
			"bufferView":10,
			"componentType":5126,
			"count":300,
			"type":"VEC2"
		},
		{
			"bufferView":11,
			"componentType":5123,
			"count":504,
			"type":"SCALAR"
		}
	],
	"bufferViews":[
		{
			"buffer":0,
			"byteLength":24744,
			"byteOffset":0,
			"target":34962
		},
		{
			"buffer":0,
			"byteLength":24744,
			"byteOffset":24744,
			"target":34962
		},
		{
			"buffer":0,
			"byteLength":16496,
			"byteOffset":49488,
			"target":34962
		},
		{
			"buffer":0,
			"byteLength":8736,
			"byteOffset":65984,
			"target":34963
		},
		{
			"buffer":0,
			"byteLength":360,
			"byteOffset":74720,
			"target":34962
		},
		{
			"buffer":0,
			"byteLength":360,
			"byteOffset":75080,
			"target":34962
		},
		{
			"buffer":0,
			"byteLength":240,
			"byteOffset":75440,
			"target":34962
		},
		{
			"buffer":0,
			"byteLength":168,
			"byteOffset":75680,
			"target":34963
		},
		{
			"buffer":0,
			"byteLength":3600,
			"byteOffset":75848,
			"target":34962
		},
		{
			"buffer":0,
			"byteLength":3600,
			"byteOffset":79448,
			"target":34962
		},
		{
			"buffer":0,
			"byteLength":2400,
			"byteOffset":83048,
			"target":34962
		},
		{
			"buffer":0,
			"byteLength":1008,
			"byteOffset":85448,
			"target":34963
		}
	],
	"buffers":[
		{
			"byteLength":86456,
			"uri":"mesa_pool-c3ef6c44d545f2af7ac389d1f967173a.bin"
		}
	]
}
