{
	"asset":{
		"generator":"Khronos glTF Blender I/O v4.1.62",
		"version":"2.0"
	},
	"scene":0,
	"scenes":[
		{
			"name":"Scene",
			"nodes":[
				0,
				1,
				2,
				3,
				4,
				5,
				6,
				7,
				8,
				9,
				10,
				11,
				12,
				13,
				14,
				15,
				16,
				17,
				18
			]
		}
	],
	"nodes":[
		{
			"mesh":0,
			"name":"Icosphere",
			"translation":[
				0,
				16.613130569458008,
				5.680170059204102
			]
		},
		{
			"mesh":1,
			"name":"Cylinder",
			"rotation":[
				0.16709180176258087,
				0.01689942553639412,
				0.09919610619544983,
				0.9807930588722229
			],
			"scale":[
				0.3520277440547943,
				16.33636474609375,
				0.3520277440547943
			],
			"translation":[
				0,
				13.943615913391113,
				-12.005870819091797
			]
		},
		{
			"mesh":2,
			"name":"Cube",
			"scale":[
				20.969717025756836,
				0.9883700609207153,
				10.138005256652832
			],
			"translation":[
				0,
				16.3166561126709,
				0
			]
		},
		{
			"mesh":3,
			"name":"Cylinder.001",
			"rotation":[
				0.2981705665588379,
				0.0019946089014410973,
				0.0583357997238636,
				0.9527262449264526
			],
			"scale":[
				0.3520277738571167,
				16.33636474609375,
				0.3520277440547943
			],
			"translation":[
				11.280896186828613,
				11.386612892150879,
				-15.125665664672852
			]
		},
		{
			"mesh":4,
			"name":"Cylinder.002",
			"rotation":[
				0,
				0.1384439617395401,
				0,
				0.9903702735900879
			],
			"scale":[
				6.8285088539123535,
				0.6076231002807617,
				6.8285088539123535
			],
			"translation":[
				-11.924869537353516,
				16.932554244995117,
				-0.07362137734889984
			]
		},
		{
			"mesh":5,
			"name":"Icosphere.001",
			"translation":[
				-7.825252056121826,
				16.613130569458008,
				0.9406261444091797
			]
		},
		{
			"mesh":6,
			"name":"Icosphere.002",
			"translation":[
				-10.954482078552246,
				16.613130569458008,
				-1.6619882583618164
			]
		},
		{
			"mesh":7,
			"name":"Icosphere.003",
			"translation":[
				-11.911965370178223,
				16.613130569458008,
				-3.1025657653808594
			]
		},
		{
			"mesh":8,
			"name":"Icosphere.004",
			"translation":[
				-12.486455917358398,
				16.613130569458008,
				-1.440026044845581
			]
		},
		{
			"mesh":9,
			"name":"Icosphere.005",
			"translation":[
				7.542359352111816,
				16.613130569458008,
				-0.6348695755004883
			]
		},
		{
			"mesh":10,
			"name":"Icosphere.006",
			"translation":[
				14.592920303344727,
				16.613130569458008,
				3.7173285484313965
			]
		},
		{
			"mesh":11,
			"name":"Icosphere.007",
			"translation":[
				16.03784942626953,
				16.613130569458008,
				2.611870288848877
			]
		},
		{
			"mesh":12,
			"name":"Icosphere.008",
			"translation":[
				15.615686416625977,
				16.613130569458008,
				-4.434338092803955
			]
		},
		{
			"mesh":13,
			"name":"Icosphere.009",
			"translation":[
				-12.355890274047852,
				16.613130569458008,
				2.185354709625244
			]
		},
		{
			"mesh":14,
			"name":"Icosphere.010",
			"translation":[
				-8.739213943481445,
				16.613130569458008,
				5.815088272094727
			]
		},
		{
			"mesh":15,
			"name":"Icosphere.011",
			"translation":[
				-10.945777893066406,
				16.613130569458008,
				5.157906532287598
			]
		},
		{
			"mesh":16,
			"name":"Icosphere.012",
			"translation":[
				-16.229347229003906,
				16.613130569458008,
				-5.718236923217773
			]
		},
		{
			"mesh":17,
			"name":"Cylinder.003",
			"scale":[
				1.5549674034118652,
				1.5363997220993042,
				1.5549674034118652
			],
			"translation":[
				-18,
				17.140174865722656,
				-7
			]
		},
		{
			"mesh":18,
			"name":"Cube.001",
			"scale":[
				67.24237060546875,
				47.5693359375,
				67.24237060546875
			],
			"translation":[
				26.543956756591797,
				45.768348693847656,
				36.42597579956055
			]
		}
	],
	"materials":[
		{
			"doubleSided":true,
			"name":"Material",
			"pbrMetallicRoughness":{
				"baseColorFactor":[
					0.800000011920929,
					0.800000011920929,
					0.800000011920929,
					1
				],
				"metallicFactor":0,
				"roughnessFactor":0.5
			}
		}
	],
	"meshes":[
		{
			"name":"Icosphere",
			"primitives":[
				{
					"attributes":{
						"POSITION":0,
						"NORMAL":1,
						"TEXCOORD_0":2
					},
					"indices":3
				}
			]
		},
		{
			"name":"Cylinder",
			"primitives":[
				{
					"attributes":{
						"POSITION":4,
						"NORMAL":5,
						"TEXCOORD_0":6
					},
					"indices":7
				}
			]
		},
		{
			"name":"Cube.001",
			"primitives":[
				{
					"attributes":{
						"POSITION":8,
						"NORMAL":9,
						"TEXCOORD_0":10
					},
					"indices":11
				}
			]
		},
		{
			"name":"Cylinder.001",
			"primitives":[
				{
					"attributes":{
						"POSITION":12,
						"NORMAL":13,
						"TEXCOORD_0":14
					},
					"indices":7
				}
			]
		},
		{
			"name":"Cylinder.002",
			"primitives":[
				{
					"attributes":{
						"POSITION":15,
						"NORMAL":16,
						"TEXCOORD_0":17,
						"TANGENT":18
					},
					"indices":19
				}
			]
		},
		{
			"name":"Icosphere.001",
			"primitives":[
				{
					"attributes":{
						"POSITION":20,
						"NORMAL":21,
						"TEXCOORD_0":22
					},
					"indices":3
				}
			]
		},
		{
			"name":"Icosphere.002",
			"primitives":[
				{
					"attributes":{
						"POSITION":23,
						"NORMAL":24,
						"TEXCOORD_0":25
					},
					"indices":3
				}
			]
		},
		{
			"name":"Icosphere.003",
			"primitives":[
				{
					"attributes":{
						"POSITION":26,
						"NORMAL":27,
						"TEXCOORD_0":28
					},
					"indices":3
				}
			]
		},
		{
			"name":"Icosphere.004",
			"primitives":[
				{
					"attributes":{
						"POSITION":29,
						"NORMAL":30,
						"TEXCOORD_0":31
					},
					"indices":3
				}
			]
		},
		{
			"name":"Icosphere.005",
			"primitives":[
				{
					"attributes":{
						"POSITION":32,
						"NORMAL":33,
						"TEXCOORD_0":34
					},
					"indices":3
				}
			]
		},
		{
			"name":"Icosphere.006",
			"primitives":[
				{
					"attributes":{
						"POSITION":35,
						"NORMAL":36,
						"TEXCOORD_0":37
					},
					"indices":3
				}
			]
		},
		{
			"name":"Icosphere.007",
			"primitives":[
				{
					"attributes":{
						"POSITION":38,
						"NORMAL":39,
						"TEXCOORD_0":40
					},
					"indices":3
				}
			]
		},
		{
			"name":"Icosphere.008",
			"primitives":[
				{
					"attributes":{
						"POSITION":41,
						"NORMAL":42,
						"TEXCOORD_0":43
					},
					"indices":3
				}
			]
		},
		{
			"name":"Icosphere.009",
			"primitives":[
				{
					"attributes":{
						"POSITION":44,
						"NORMAL":45,
						"TEXCOORD_0":46
					},
					"indices":3
				}
			]
		},
		{
			"name":"Icosphere.010",
			"primitives":[
				{
					"attributes":{
						"POSITION":47,
						"NORMAL":48,
						"TEXCOORD_0":49
					},
					"indices":3
				}
			]
		},
		{
			"name":"Icosphere.011",
			"primitives":[
				{
					"attributes":{
						"POSITION":50,
						"NORMAL":51,
						"TEXCOORD_0":52
					},
					"indices":3
				}
			]
		},
		{
			"name":"Icosphere.012",
			"primitives":[
				{
					"attributes":{
						"POSITION":53,
						"NORMAL":54,
						"TEXCOORD_0":55
					},
					"indices":3
				}
			]
		},
		{
			"name":"Cylinder.003",
			"primitives":[
				{
					"attributes":{
						"POSITION":56,
						"NORMAL":57,
						"TEXCOORD_0":58
					},
					"indices":59
				}
			]
		},
		{
			"name":"Cube",
			"primitives":[
				{
					"attributes":{
						"POSITION":60,
						"NORMAL":61,
						"TEXCOORD_0":62,
						"TANGENT":63
					},
					"indices":64,
					"material":0
				}
			]
		}
	],
	"accessors":[
		{
			"bufferView":0,
			"componentType":5126,
			"count":240,
			"max":[
				0.8267358541488647,
				0.780961811542511,
				0.7862660884857178
			],
			"min":[
				-0.8267358541488647,
				-0.780961811542511,
				-0.7862660884857178
			],
			"type":"VEC3"
		},
		{
			"bufferView":1,
			"componentType":5126,
			"count":240,
			"type":"VEC3"
		},
		{
			"bufferView":2,
			"componentType":5126,
			"count":240,
			"type":"VEC2"
		},
		{
			"bufferView":3,
			"componentType":5123,
			"count":348,
			"type":"SCALAR"
		},
		{
			"bufferView":4,
			"componentType":5126,
			"count":150,
			"max":[
				2.8726370334625244,
				1.0208073854446411,
				2.524123430252075
			],
			"min":[
				-2.7195417881011963,
				-1.0002249479293823,
				-2.940014600753784
			],
			"type":"VEC3"
		},
		{
			"bufferView":5,
			"componentType":5126,
			"count":150,
			"type":"VEC3"
		},
		{
			"bufferView":6,
			"componentType":5126,
			"count":150,
			"type":"VEC2"
		},
		{
			"bufferView":7,
			"componentType":5123,
			"count":228,
			"type":"SCALAR"
		},
		{
			"bufferView":8,
			"componentType":5126,
			"count":920,
			"max":[
				1.164858102798462,
				1.491265058517456,
				1.318216323852539
			],
			"min":[
				-1.164858102798462,
				-18.503890991210938,
				-1.318216323852539
			],
			"type":"VEC3"
		},
		{
			"bufferView":9,
			"componentType":5126,
			"count":920,
			"type":"VEC3"
		},
		{
			"bufferView":10,
			"componentType":5126,
			"count":920,
			"type":"VEC2"
		},
		{
			"bufferView":11,
			"componentType":5123,
			"count":1932,
			"type":"SCALAR"
		},
		{
			"bufferView":12,
			"componentType":5126,
			"count":150,
			"max":[
				2.8726370334625244,
				1.0208073854446411,
				2.524123430252075
			],
			"min":[
				-2.7195417881011963,
				-1.0002249479293823,
				-2.940014600753784
			],
			"type":"VEC3"
		},
		{
			"bufferView":13,
			"componentType":5126,
			"count":150,
			"type":"VEC3"
		},
		{
			"bufferView":14,
			"componentType":5126,
			"count":150,
			"type":"VEC2"
		},
		{
			"bufferView":15,
			"componentType":5126,
			"count":108,
			"max":[
				0.738249659538269,
				1,
				0.5
			],
			"min":[
				-0.738249659538269,
				-1,
				-0.8524572849273682
			],
			"type":"VEC3"
		},
		{
			"bufferView":16,
			"componentType":5126,
			"count":108,
			"type":"VEC3"
		},
		{
			"bufferView":17,
			"componentType":5126,
			"count":108,
			"type":"VEC2"
		},
		{
			"bufferView":18,
			"componentType":5126,
			"count":108,
			"type":"VEC4"
		},
		{
			"bufferView":19,
			"componentType":5123,
			"count":216,
			"type":"SCALAR"
		},
		{
			"bufferView":20,
			"componentType":5126,
			"count":240,
			"max":[
				0.8267358541488647,
				0.780961811542511,
				0.7862660884857178
			],
			"min":[
				-0.8267358541488647,
				-0.780961811542511,
				-0.7862660884857178
			],
			"type":"VEC3"
		},
		{
			"bufferView":21,
			"componentType":5126,
			"count":240,
			"type":"VEC3"
		},
		{
			"bufferView":22,
			"componentType":5126,
			"count":240,
			"type":"VEC2"
		},
		{
			"bufferView":23,
			"componentType":5126,
			"count":240,
			"max":[
				0.8267358541488647,
				0.780961811542511,
				0.7862660884857178
			],
			"min":[
				-0.8267358541488647,
				-0.780961811542511,
				-0.7862660884857178
			],
			"type":"VEC3"
		},
		{
			"bufferView":24,
			"componentType":5126,
			"count":240,
			"type":"VEC3"
		},
		{
			"bufferView":25,
			"componentType":5126,
			"count":240,
			"type":"VEC2"
		},
		{
			"bufferView":26,
			"componentType":5126,
			"count":240,
			"max":[
				0.8267358541488647,
				0.780961811542511,
				0.7862660884857178
			],
			"min":[
				-0.8267358541488647,
				-0.780961811542511,
				-0.7862660884857178
			],
			"type":"VEC3"
		},
		{
			"bufferView":27,
			"componentType":5126,
			"count":240,
			"type":"VEC3"
		},
		{
			"bufferView":28,
			"componentType":5126,
			"count":240,
			"type":"VEC2"
		},
		{
			"bufferView":29,
			"componentType":5126,
			"count":240,
			"max":[
				0.8267358541488647,
				0.780961811542511,
				0.7862660884857178
			],
			"min":[
				-0.8267358541488647,
				-0.780961811542511,
				-0.7862660884857178
			],
			"type":"VEC3"
		},
		{
			"bufferView":30,
			"componentType":5126,
			"count":240,
			"type":"VEC3"
		},
		{
			"bufferView":31,
			"componentType":5126,
			"count":240,
			"type":"VEC2"
		},
		{
			"bufferView":32,
			"componentType":5126,
			"count":240,
			"max":[
				0.8267358541488647,
				0.780961811542511,
				0.7862660884857178
			],
			"min":[
				-0.8267358541488647,
				-0.780961811542511,
				-0.7862660884857178
			],
			"type":"VEC3"
		},
		{
			"bufferView":33,
			"componentType":5126,
			"count":240,
			"type":"VEC3"
		},
		{
			"bufferView":34,
			"componentType":5126,
			"count":240,
			"type":"VEC2"
		},
		{
			"bufferView":35,
			"componentType":5126,
			"count":240,
			"max":[
				0.8267358541488647,
				0.780961811542511,
				0.7862660884857178
			],
			"min":[
				-0.8267358541488647,
				-0.780961811542511,
				-0.7862660884857178
			],
			"type":"VEC3"
		},
		{
			"bufferView":36,
			"componentType":5126,
			"count":240,
			"type":"VEC3"
		},
		{
			"bufferView":37,
			"componentType":5126,
			"count":240,
			"type":"VEC2"
		},
		{
			"bufferView":38,
			"componentType":5126,
			"count":240,
			"max":[
				0.8267358541488647,
				0.780961811542511,
				0.7862660884857178
			],
			"min":[
				-0.8267358541488647,
				-0.780961811542511,
				-0.7862660884857178
			],
			"type":"VEC3"
		},
		{
			"bufferView":39,
			"componentType":5126,
			"count":240,
			"type":"VEC3"
		},
		{
			"bufferView":40,
			"componentType":5126,
			"count":240,
			"type":"VEC2"
		},
		{
			"bufferView":41,
			"componentType":5126,
			"count":240,
			"max":[
				0.8267358541488647,
				0.780961811542511,
				0.7862660884857178
			],
			"min":[
				-0.8267358541488647,
				-0.780961811542511,
				-0.7862660884857178
			],
			"type":"VEC3"
		},
		{
			"bufferView":42,
			"componentType":5126,
			"count":240,
			"type":"VEC3"
		},
		{
			"bufferView":43,
			"componentType":5126,
			"count":240,
			"type":"VEC2"
		},
		{
			"bufferView":44,
			"componentType":5126,
			"count":240,
			"max":[
				0.8267358541488647,
				0.780961811542511,
				0.7862660884857178
			],
			"min":[
				-0.8267358541488647,
				-0.780961811542511,
				-0.7862660884857178
			],
			"type":"VEC3"
		},
		{
			"bufferView":45,
			"componentType":5126,
			"count":240,
			"type":"VEC3"
		},
		{
			"bufferView":46,
			"componentType":5126,
			"count":240,
			"type":"VEC2"
		},
		{
			"bufferView":47,
			"componentType":5126,
			"count":240,
			"max":[
				0.8267358541488647,
				0.780961811542511,
				0.7862660884857178
			],
			"min":[
				-0.8267358541488647,
				-0.780961811542511,
				-0.7862660884857178
			],
			"type":"VEC3"
		},
		{
			"bufferView":48,
			"componentType":5126,
			"count":240,
			"type":"VEC3"
		},
		{
			"bufferView":49,
			"componentType":5126,
			"count":240,
			"type":"VEC2"
		},
		{
			"bufferView":50,
			"componentType":5126,
			"count":240,
			"max":[
				0.8267358541488647,
				0.780961811542511,
				0.7862660884857178
			],
			"min":[
				-0.8267358541488647,
				-0.780961811542511,
				-0.7862660884857178
			],
			"type":"VEC3"
		},
		{
			"bufferView":51,
			"componentType":5126,
			"count":240,
			"type":"VEC3"
		},
		{
			"bufferView":52,
			"componentType":5126,
			"count":240,
			"type":"VEC2"
		},
		{
			"bufferView":53,
			"componentType":5126,
			"count":240,
			"max":[
				0.8267358541488647,
				0.780961811542511,
				0.7862660884857178
			],
			"min":[
				-0.8267358541488647,
				-0.780961811542511,
				-0.7862660884857178
			],
			"type":"VEC3"
		},
		{
			"bufferView":54,
			"componentType":5126,
			"count":240,
			"type":"VEC3"
		},
		{
			"bufferView":55,
			"componentType":5126,
			"count":240,
			"type":"VEC2"
		},
		{
			"bufferView":56,
			"componentType":5126,
			"count":288,
			"max":[
				24.151611328125,
				2.183279037475586,
				10.00340461730957
			],
			"min":[
				-1,
				-2.1832778453826904,
				-1
			],
			"type":"VEC3"
		},
		{
			"bufferView":57,
			"componentType":5126,
			"count":288,
			"type":"VEC3"
		},
		{
			"bufferView":58,
			"componentType":5126,
			"count":288,
			"type":"VEC2"
		},
		{
			"bufferView":59,
			"componentType":5123,
			"count":504,
			"type":"SCALAR"
		},
		{
			"bufferView":60,
			"componentType":5126,
			"count":24,
			"max":[
				1,
				1,
				1
			],
			"min":[
				-1,
				-1,
				-1
			],
			"type":"VEC3"
		},
		{
			"bufferView":61,
			"componentType":5126,
			"count":24,
			"type":"VEC3"
		},
		{
			"bufferView":62,
			"componentType":5126,
			"count":24,
			"type":"VEC2"
		},
		{
			"bufferView":63,
			"componentType":5126,
			"count":24,
			"type":"VEC4"
		},
		{
			"bufferView":64,
			"componentType":5123,
			"count":36,
			"type":"SCALAR"
		}
	],
	"bufferViews":[
		{
			"buffer":0,
			"byteLength":2880,
			"byteOffset":0,
			"target":34962
		},
		{
			"buffer":0,
			"byteLength":2880,
			"byteOffset":2880,
			"target":34962
		},
		{
			"buffer":0,
			"byteLength":1920,
			"byteOffset":5760,
			"target":34962
		},
		{
			"buffer":0,
			"byteLength":696,
			"byteOffset":7680,
			"target":34963
		},
		{
			"buffer":0,
			"byteLength":1800,
			"byteOffset":8376,
			"target":34962
		},
		{
			"buffer":0,
			"byteLength":1800,
			"byteOffset":10176,
			"target":34962
		},
		{
			"buffer":0,
			"byteLength":1200,
			"byteOffset":11976,
			"target":34962
		},
		{
			"buffer":0,
			"byteLength":456,
			"byteOffset":13176,
			"target":34963
		},
		{
			"buffer":0,
			"byteLength":11040,
			"byteOffset":13632,
			"target":34962
		},
		{
			"buffer":0,
			"byteLength":11040,
			"byteOffset":24672,
			"target":34962
		},
		{
			"buffer":0,
			"byteLength":7360,
			"byteOffset":35712,
			"target":34962
		},
		{
			"buffer":0,
			"byteLength":3864,
			"byteOffset":43072,
			"target":34963
		},
		{
			"buffer":0,
			"byteLength":1800,
			"byteOffset":46936,
			"target":34962
		},
		{
			"buffer":0,
			"byteLength":1800,
			"byteOffset":48736,
			"target":34962
		},
		{
			"buffer":0,
			"byteLength":1200,
			"byteOffset":50536,
			"target":34962
		},
		{
			"buffer":0,
			"byteLength":1296,
			"byteOffset":51736,
			"target":34962
		},
		{
			"buffer":0,
			"byteLength":1296,
			"byteOffset":53032,
			"target":34962
		},
		{
			"buffer":0,
			"byteLength":864,
			"byteOffset":54328,
			"target":34962
		},
		{
			"buffer":0,
			"byteLength":1728,
			"byteOffset":55192,
			"target":34962
		},
		{
			"buffer":0,
			"byteLength":432,
			"byteOffset":56920,
			"target":34963
		},
		{
			"buffer":0,
			"byteLength":2880,
			"byteOffset":57352,
			"target":34962
		},
		{
			"buffer":0,
			"byteLength":2880,
			"byteOffset":60232,
			"target":34962
		},
		{
			"buffer":0,
			"byteLength":1920,
			"byteOffset":63112,
			"target":34962
		},
		{
			"buffer":0,
			"byteLength":2880,
			"byteOffset":65032,
			"target":34962
		},
		{
			"buffer":0,
			"byteLength":2880,
			"byteOffset":67912,
			"target":34962
		},
		{
			"buffer":0,
			"byteLength":1920,
			"byteOffset":70792,
			"target":34962
		},
		{
			"buffer":0,
			"byteLength":2880,
			"byteOffset":72712,
			"target":34962
		},
		{
			"buffer":0,
			"byteLength":2880,
			"byteOffset":75592,
			"target":34962
		},
		{
			"buffer":0,
			"byteLength":1920,
			"byteOffset":78472,
			"target":34962
		},
		{
			"buffer":0,
			"byteLength":2880,
			"byteOffset":80392,
			"target":34962
		},
		{
			"buffer":0,
			"byteLength":2880,
			"byteOffset":83272,
			"target":34962
		},
		{
			"buffer":0,
			"byteLength":1920,
			"byteOffset":86152,
			"target":34962
		},
		{
			"buffer":0,
			"byteLength":2880,
			"byteOffset":88072,
			"target":34962
		},
		{
			"buffer":0,
			"byteLength":2880,
			"byteOffset":90952,
			"target":34962
		},
		{
			"buffer":0,
			"byteLength":1920,
			"byteOffset":93832,
			"target":34962
		},
		{
			"buffer":0,
			"byteLength":2880,
			"byteOffset":95752,
			"target":34962
		},
		{
			"buffer":0,
			"byteLength":2880,
			"byteOffset":98632,
			"target":34962
		},
		{
			"buffer":0,
			"byteLength":1920,
			"byteOffset":101512,
			"target":34962
		},
		{
			"buffer":0,
			"byteLength":2880,
			"byteOffset":103432,
			"target":34962
		},
		{
			"buffer":0,
			"byteLength":2880,
			"byteOffset":106312,
			"target":34962
		},
		{
			"buffer":0,
			"byteLength":1920,
			"byteOffset":109192,
			"target":34962
		},
		{
			"buffer":0,
			"byteLength":2880,
			"byteOffset":111112,
			"target":34962
		},
		{
			"buffer":0,
			"byteLength":2880,
			"byteOffset":113992,
			"target":34962
		},
		{
			"buffer":0,
			"byteLength":1920,
			"byteOffset":116872,
			"target":34962
		},
		{
			"buffer":0,
			"byteLength":2880,
			"byteOffset":118792,
			"target":34962
		},
		{
			"buffer":0,
			"byteLength":2880,
			"byteOffset":121672,
			"target":34962
		},
		{
			"buffer":0,
			"byteLength":1920,
			"byteOffset":124552,
			"target":34962
		},
		{
			"buffer":0,
			"byteLength":2880,
			"byteOffset":126472,
			"target":34962
		},
		{
			"buffer":0,
			"byteLength":2880,
			"byteOffset":129352,
			"target":34962
		},
		{
			"buffer":0,
			"byteLength":1920,
			"byteOffset":132232,
			"target":34962
		},
		{
			"buffer":0,
			"byteLength":2880,
			"byteOffset":134152,
			"target":34962
		},
		{
			"buffer":0,
			"byteLength":2880,
			"byteOffset":137032,
			"target":34962
		},
		{
			"buffer":0,
			"byteLength":1920,
			"byteOffset":139912,
			"target":34962
		},
		{
			"buffer":0,
			"byteLength":2880,
			"byteOffset":141832,
			"target":34962
		},
		{
			"buffer":0,
			"byteLength":2880,
			"byteOffset":144712,
			"target":34962
		},
		{
			"buffer":0,
			"byteLength":1920,
			"byteOffset":147592,
			"target":34962
		},
		{
			"buffer":0,
			"byteLength":3456,
			"byteOffset":149512,
			"target":34962
		},
		{
			"buffer":0,
			"byteLength":3456,
			"byteOffset":152968,
			"target":34962
		},
		{
			"buffer":0,
			"byteLength":2304,
			"byteOffset":156424,
			"target":34962
		},
		{
			"buffer":0,
			"byteLength":1008,
			"byteOffset":158728,
			"target":34963
		},
		{
			"buffer":0,
			"byteLength":288,
			"byteOffset":159736,
			"target":34962
		},
		{
			"buffer":0,
			"byteLength":288,
			"byteOffset":160024,
			"target":34962
		},
		{
			"buffer":0,
			"byteLength":192,
			"byteOffset":160312,
			"target":34962
		},
		{
			"buffer":0,
			"byteLength":384,
			"byteOffset":160504,
			"target":34962
		},
		{
			"buffer":0,
			"byteLength":72,
			"byteOffset":160888,
			"target":34963
		}
	],
	"buffers":[
		{
			"byteLength":160960,
			"uri":"pool_demo-6abbfe3f0367aa042f40b7dfa9d40a7d.bin"
		}
	]
}
