{
	"asset":{
		"generator":"Khronos glTF Blender I/O v3.6.28",
		"version":"2.0"
	},
	"scene":0,
	"scenes":[
		{
			"name":"Scene",
			"nodes":[
				0,
				1,
				2,
				3,
				4,
				5,
				6,
				7,
				8,
				9,
				10,
				11,
				12,
				13,
				14,
				15,
				16,
				17,
				18
			]
		}
	],
	"nodes":[
		{
			"mesh":0,
			"name":"Icosphere",
			"translation":[
				0,
				16.613130569458008,
				5.680170059204102
			]
		},
		{
			"mesh":1,
			"name":"Cylinder",
			"rotation":[
				0.16709180176258087,
				0.01689942553639412,
				0.09919610619544983,
				0.9807930588722229
			],
			"scale":[
				0.3520277440547943,
				16.33636474609375,
				0.3520277440547943
			],
			"translation":[
				0,
				13.943615913391113,
				-12.005870819091797
			]
		},
		{
			"mesh":2,
			"name":"Cube",
			"scale":[
				20.969717025756836,
				0.9883700609207153,
				10.138005256652832
			],
			"translation":[
				0,
				16.3166561126709,
				0
			]
		},
		{
			"mesh":3,
			"name":"Cylinder.001",
			"rotation":[
				0.2981705665588379,
				0.0019946089014410973,
				0.0583357997238636,
				0.9527262449264526
			],
			"scale":[
				0.3520277738571167,
				16.33636474609375,
				0.3520277440547943
			],
			"translation":[
				11.280896186828613,
				11.386612892150879,
				-15.125665664672852
			]
		},
		{
			"mesh":4,
			"name":"Cylinder.002",
			"rotation":[
				0,
				0.1384439617395401,
				0,
				0.9903702735900879
			],
			"scale":[
				6.8285088539123535,
				0.6076231002807617,
				6.8285088539123535
			],
			"translation":[
				-11.924869537353516,
				16.932554244995117,
				-0.07362137734889984
			]
		},
		{
			"mesh":5,
			"name":"Icosphere.001",
			"translation":[
				-7.825252056121826,
				16.613130569458008,
				0.9406261444091797
			]
		},
		{
			"mesh":6,
			"name":"Icosphere.002",
			"translation":[
				-10.954482078552246,
				16.613130569458008,
				-1.6619882583618164
			]
		},
		{
			"mesh":7,
			"name":"Icosphere.003",
			"translation":[
				-11.911965370178223,
				16.613130569458008,
				-3.1025657653808594
			]
		},
		{
			"mesh":8,
			"name":"Icosphere.004",
			"translation":[
				-12.486455917358398,
				16.613130569458008,
				-1.440026044845581
			]
		},
		{
			"mesh":9,
			"name":"Icosphere.005",
			"translation":[
				7.542359352111816,
				16.613130569458008,
				-0.6348695755004883
			]
		},
		{
			"mesh":10,
			"name":"Icosphere.006",
			"translation":[
				14.592920303344727,
				16.613130569458008,
				3.7173285484313965
			]
		},
		{
			"mesh":11,
			"name":"Icosphere.007",
			"translation":[
				16.03784942626953,
				16.613130569458008,
				2.611870288848877
			]
		},
		{
			"mesh":12,
			"name":"Icosphere.008",
			"translation":[
				15.615686416625977,
				16.613130569458008,
				-4.434338092803955
			]
		},
		{
			"mesh":13,
			"name":"Icosphere.009",
			"translation":[
				-12.355890274047852,
				16.613130569458008,
				2.185354709625244
			]
		},
		{
			"mesh":14,
			"name":"Icosphere.010",
			"translation":[
				-8.739213943481445,
				16.613130569458008,
				5.815088272094727
			]
		},
		{
			"mesh":15,
			"name":"Icosphere.011",
			"translation":[
				-10.945777893066406,
				16.613130569458008,
				5.157906532287598
			]
		},
		{
			"mesh":16,
			"name":"Icosphere.012",
			"translation":[
				-16.229347229003906,
				16.613130569458008,
				-5.718236923217773
			]
		},
		{
			"mesh":17,
			"name":"Cylinder.003",
			"scale":[
				1.5549674034118652,
				1.5363997220993042,
				1.5549674034118652
			],
			"translation":[
				-18,
				17.140174865722656,
				-7
			]
		},
		{
			"mesh":18,
			"name":"Cube.001",
			"scale":[
				67.24237060546875,
				47.5693359375,
				67.24237060546875
			],
			"translation":[
				26.543956756591797,
				45.768348693847656,
				36.42597579956055
			]
		}
	],
	"materials":[
		{
			"doubleSided":true,
			"name":"Material",
			"pbrMetallicRoughness":{
				"baseColorFactor":[
					0.800000011920929,
					0.800000011920929,
					0.800000011920929,
					1
				],
				"metallicFactor":0,
				"roughnessFactor":0.5
			}
		}
	],
	"meshes":[
		{
			"name":"Icosphere",
			"primitives":[
				{
					"attributes":{
						"POSITION":0,
						"NORMAL":1,
						"TEXCOORD_0":2
					},
					"indices":3
				}
			]
		},
		{
			"name":"Cylinder",
			"primitives":[
				{
					"attributes":{
						"POSITION":4,
						"NORMAL":5,
						"TEXCOORD_0":6
					},
					"indices":7
				}
			]
		},
		{
			"name":"Cube.001",
			"primitives":[
				{
					"attributes":{
						"POSITION":8,
						"NORMAL":9,
						"TEXCOORD_0":10
					},
					"indices":11
				},
				{
					"attributes":{
						"POSITION":12,
						"NORMAL":13,
						"TEXCOORD_0":14
					},
					"indices":15
				}
			]
		},
		{
			"name":"Cylinder.001",
			"primitives":[
				{
					"attributes":{
						"POSITION":16,
						"NORMAL":17,
						"TEXCOORD_0":18
					},
					"indices":7
				}
			]
		},
		{
			"name":"Cylinder.002",
			"primitives":[
				{
					"attributes":{
						"POSITION":19,
						"NORMAL":20,
						"TEXCOORD_0":21,
						"TANGENT":22
					},
					"indices":23
				}
			]
		},
		{
			"name":"Icosphere.001",
			"primitives":[
				{
					"attributes":{
						"POSITION":24,
						"NORMAL":25,
						"TEXCOORD_0":26
					},
					"indices":3
				}
			]
		},
		{
			"name":"Icosphere.002",
			"primitives":[
				{
					"attributes":{
						"POSITION":27,
						"NORMAL":28,
						"TEXCOORD_0":29
					},
					"indices":3
				}
			]
		},
		{
			"name":"Icosphere.003",
			"primitives":[
				{
					"attributes":{
						"POSITION":30,
						"NORMAL":31,
						"TEXCOORD_0":32
					},
					"indices":3
				}
			]
		},
		{
			"name":"Icosphere.004",
			"primitives":[
				{
					"attributes":{
						"POSITION":33,
						"NORMAL":34,
						"TEXCOORD_0":35
					},
					"indices":3
				}
			]
		},
		{
			"name":"Icosphere.005",
			"primitives":[
				{
					"attributes":{
						"POSITION":36,
						"NORMAL":37,
						"TEXCOORD_0":38
					},
					"indices":3
				}
			]
		},
		{
			"name":"Icosphere.006",
			"primitives":[
				{
					"attributes":{
						"POSITION":39,
						"NORMAL":40,
						"TEXCOORD_0":41
					},
					"indices":3
				}
			]
		},
		{
			"name":"Icosphere.007",
			"primitives":[
				{
					"attributes":{
						"POSITION":42,
						"NORMAL":43,
						"TEXCOORD_0":44
					},
					"indices":3
				}
			]
		},
		{
			"name":"Icosphere.008",
			"primitives":[
				{
					"attributes":{
						"POSITION":45,
						"NORMAL":46,
						"TEXCOORD_0":47
					},
					"indices":3
				}
			]
		},
		{
			"name":"Icosphere.009",
			"primitives":[
				{
					"attributes":{
						"POSITION":48,
						"NORMAL":49,
						"TEXCOORD_0":50
					},
					"indices":3
				}
			]
		},
		{
			"name":"Icosphere.010",
			"primitives":[
				{
					"attributes":{
						"POSITION":51,
						"NORMAL":52,
						"TEXCOORD_0":53
					},
					"indices":3
				}
			]
		},
		{
			"name":"Icosphere.011",
			"primitives":[
				{
					"attributes":{
						"POSITION":54,
						"NORMAL":55,
						"TEXCOORD_0":56
					},
					"indices":3
				}
			]
		},
		{
			"name":"Icosphere.012",
			"primitives":[
				{
					"attributes":{
						"POSITION":57,
						"NORMAL":58,
						"TEXCOORD_0":59
					},
					"indices":3
				}
			]
		},
		{
			"name":"Cylinder.003",
			"primitives":[
				{
					"attributes":{
						"POSITION":60,
						"NORMAL":61,
						"TEXCOORD_0":62
					},
					"indices":63
				}
			]
		},
		{
			"name":"Cube",
			"primitives":[
				{
					"attributes":{
						"POSITION":64,
						"NORMAL":65,
						"TEXCOORD_0":66,
						"TANGENT":67
					},
					"indices":68,
					"material":0
				}
			]
		}
	],
	"accessors":[
		{
			"bufferView":0,
			"componentType":5126,
			"count":240,
			"max":[
				0.8267358541488647,
				0.780961811542511,
				0.7862660884857178
			],
			"min":[
				-0.8267358541488647,
				-0.780961811542511,
				-0.7862660884857178
			],
			"type":"VEC3"
		},
		{
			"bufferView":1,
			"componentType":5126,
			"count":240,
			"type":"VEC3"
		},
		{
			"bufferView":2,
			"componentType":5126,
			"count":240,
			"type":"VEC2"
		},
		{
			"bufferView":3,
			"componentType":5123,
			"count":348,
			"type":"SCALAR"
		},
		{
			"bufferView":4,
			"componentType":5126,
			"count":150,
			"max":[
				2.8726370334625244,
				1.0208073854446411,
				2.524123430252075
			],
			"min":[
				-2.7195417881011963,
				-1.0002249479293823,
				-2.940014600753784
			],
			"type":"VEC3"
		},
		{
			"bufferView":5,
			"componentType":5126,
			"count":150,
			"type":"VEC3"
		},
		{
			"bufferView":6,
			"componentType":5126,
			"count":150,
			"type":"VEC2"
		},
		{
			"bufferView":7,
			"componentType":5123,
			"count":228,
			"type":"SCALAR"
		},
		{
			"bufferView":8,
			"componentType":5126,
			"count":636,
			"max":[
				1.164858102798462,
				1.491265058517456,
				1.318216323852539
			],
			"min":[
				-1.164858102798462,
				-18.503890991210938,
				-1.318216323852539
			],
			"type":"VEC3"
		},
		{
			"bufferView":9,
			"componentType":5126,
			"count":636,
			"type":"VEC3"
		},
		{
			"bufferView":10,
			"componentType":5126,
			"count":636,
			"type":"VEC2"
		},
		{
			"bufferView":11,
			"componentType":5123,
			"count":1404,
			"type":"SCALAR"
		},
		{
			"bufferView":12,
			"componentType":5126,
			"count":284,
			"max":[
				0.9325336813926697,
				1.491265058517456,
				0.8438512086868286
			],
			"min":[
				-0.9325337409973145,
				-2.5606496334075928,
				-0.8438512086868286
			],
			"type":"VEC3"
		},
		{
			"bufferView":13,
			"componentType":5126,
			"count":284,
			"type":"VEC3"
		},
		{
			"bufferView":14,
			"componentType":5126,
			"count":284,
			"type":"VEC2"
		},
		{
			"bufferView":15,
			"componentType":5123,
			"count":528,
			"type":"SCALAR"
		},
		{
			"bufferView":16,
			"componentType":5126,
			"count":150,
			"max":[
				2.8726370334625244,
				1.0208073854446411,
				2.524123430252075
			],
			"min":[
				-2.7195417881011963,
				-1.0002249479293823,
				-2.940014600753784
			],
			"type":"VEC3"
		},
		{
			"bufferView":17,
			"componentType":5126,
			"count":150,
			"type":"VEC3"
		},
		{
			"bufferView":18,
			"componentType":5126,
			"count":150,
			"type":"VEC2"
		},
		{
			"bufferView":19,
			"componentType":5126,
			"count":124,
			"max":[
				0.738249659538269,
				1,
				0.5
			],
			"min":[
				-0.738249659538269,
				-1,
				-0.8524572849273682
			],
			"type":"VEC3"
		},
		{
			"bufferView":20,
			"componentType":5126,
			"count":124,
			"type":"VEC3"
		},
		{
			"bufferView":21,
			"componentType":5126,
			"count":124,
			"type":"VEC2"
		},
		{
			"bufferView":22,
			"componentType":5126,
			"count":124,
			"type":"VEC4"
		},
		{
			"bufferView":23,
			"componentType":5123,
			"count":216,
			"type":"SCALAR"
		},
		{
			"bufferView":24,
			"componentType":5126,
			"count":240,
			"max":[
				0.8267358541488647,
				0.780961811542511,
				0.7862660884857178
			],
			"min":[
				-0.8267358541488647,
				-0.780961811542511,
				-0.7862660884857178
			],
			"type":"VEC3"
		},
		{
			"bufferView":25,
			"componentType":5126,
			"count":240,
			"type":"VEC3"
		},
		{
			"bufferView":26,
			"componentType":5126,
			"count":240,
			"type":"VEC2"
		},
		{
			"bufferView":27,
			"componentType":5126,
			"count":240,
			"max":[
				0.8267358541488647,
				0.780961811542511,
				0.7862660884857178
			],
			"min":[
				-0.8267358541488647,
				-0.780961811542511,
				-0.7862660884857178
			],
			"type":"VEC3"
		},
		{
			"bufferView":28,
			"componentType":5126,
			"count":240,
			"type":"VEC3"
		},
		{
			"bufferView":29,
			"componentType":5126,
			"count":240,
			"type":"VEC2"
		},
		{
			"bufferView":30,
			"componentType":5126,
			"count":240,
			"max":[
				0.8267358541488647,
				0.780961811542511,
				0.7862660884857178
			],
			"min":[
				-0.8267358541488647,
				-0.780961811542511,
				-0.7862660884857178
			],
			"type":"VEC3"
		},
		{
			"bufferView":31,
			"componentType":5126,
			"count":240,
			"type":"VEC3"
		},
		{
			"bufferView":32,
			"componentType":5126,
			"count":240,
			"type":"VEC2"
		},
		{
			"bufferView":33,
			"componentType":5126,
			"count":240,
			"max":[
				0.8267358541488647,
				0.780961811542511,
				0.7862660884857178
			],
			"min":[
				-0.8267358541488647,
				-0.780961811542511,
				-0.7862660884857178
			],
			"type":"VEC3"
		},
		{
			"bufferView":34,
			"componentType":5126,
			"count":240,
			"type":"VEC3"
		},
		{
			"bufferView":35,
			"componentType":5126,
			"count":240,
			"type":"VEC2"
		},
		{
			"bufferView":36,
			"componentType":5126,
			"count":240,
			"max":[
				0.8267358541488647,
				0.780961811542511,
				0.7862660884857178
			],
			"min":[
				-0.8267358541488647,
				-0.780961811542511,
				-0.7862660884857178
			],
			"type":"VEC3"
		},
		{
			"bufferView":37,
			"componentType":5126,
			"count":240,
			"type":"VEC3"
		},
		{
			"bufferView":38,
			"componentType":5126,
			"count":240,
			"type":"VEC2"
		},
		{
			"bufferView":39,
			"componentType":5126,
			"count":240,
			"max":[
				0.8267358541488647,
				0.780961811542511,
				0.7862660884857178
			],
			"min":[
				-0.8267358541488647,
				-0.780961811542511,
				-0.7862660884857178
			],
			"type":"VEC3"
		},
		{
			"bufferView":40,
			"componentType":5126,
			"count":240,
			"type":"VEC3"
		},
		{
			"bufferView":41,
			"componentType":5126,
			"count":240,
			"type":"VEC2"
		},
		{
			"bufferView":42,
			"componentType":5126,
			"count":240,
			"max":[
				0.8267358541488647,
				0.780961811542511,
				0.7862660884857178
			],
			"min":[
				-0.8267358541488647,
				-0.780961811542511,
				-0.7862660884857178
			],
			"type":"VEC3"
		},
		{
			"bufferView":43,
			"componentType":5126,
			"count":240,
			"type":"VEC3"
		},
		{
			"bufferView":44,
			"componentType":5126,
			"count":240,
			"type":"VEC2"
		},
		{
			"bufferView":45,
			"componentType":5126,
			"count":240,
			"max":[
				0.8267358541488647,
				0.780961811542511,
				0.7862660884857178
			],
			"min":[
				-0.8267358541488647,
				-0.780961811542511,
				-0.7862660884857178
			],
			"type":"VEC3"
		},
		{
			"bufferView":46,
			"componentType":5126,
			"count":240,
			"type":"VEC3"
		},
		{
			"bufferView":47,
			"componentType":5126,
			"count":240,
			"type":"VEC2"
		},
		{
			"bufferView":48,
			"componentType":5126,
			"count":240,
			"max":[
				0.8267358541488647,
				0.780961811542511,
				0.7862660884857178
			],
			"min":[
				-0.8267358541488647,
				-0.780961811542511,
				-0.7862660884857178
			],
			"type":"VEC3"
		},
		{
			"bufferView":49,
			"componentType":5126,
			"count":240,
			"type":"VEC3"
		},
		{
			"bufferView":50,
			"componentType":5126,
			"count":240,
			"type":"VEC2"
		},
		{
			"bufferView":51,
			"componentType":5126,
			"count":240,
			"max":[
				0.8267358541488647,
				0.780961811542511,
				0.7862660884857178
			],
			"min":[
				-0.8267358541488647,
				-0.780961811542511,
				-0.7862660884857178
			],
			"type":"VEC3"
		},
		{
			"bufferView":52,
			"componentType":5126,
			"count":240,
			"type":"VEC3"
		},
		{
			"bufferView":53,
			"componentType":5126,
			"count":240,
			"type":"VEC2"
		},
		{
			"bufferView":54,
			"componentType":5126,
			"count":240,
			"max":[
				0.8267358541488647,
				0.780961811542511,
				0.7862660884857178
			],
			"min":[
				-0.8267358541488647,
				-0.780961811542511,
				-0.7862660884857178
			],
			"type":"VEC3"
		},
		{
			"bufferView":55,
			"componentType":5126,
			"count":240,
			"type":"VEC3"
		},
		{
			"bufferView":56,
			"componentType":5126,
			"count":240,
			"type":"VEC2"
		},
		{
			"bufferView":57,
			"componentType":5126,
			"count":240,
			"max":[
				0.8267358541488647,
				0.780961811542511,
				0.7862660884857178
			],
			"min":[
				-0.8267358541488647,
				-0.780961811542511,
				-0.7862660884857178
			],
			"type":"VEC3"
		},
		{
			"bufferView":58,
			"componentType":5126,
			"count":240,
			"type":"VEC3"
		},
		{
			"bufferView":59,
			"componentType":5126,
			"count":240,
			"type":"VEC2"
		},
		{
			"bufferView":60,
			"componentType":5126,
			"count":288,
			"max":[
				24.151611328125,
				2.183279037475586,
				10.00340461730957
			],
			"min":[
				-1,
				-2.1832778453826904,
				-1
			],
			"type":"VEC3"
		},
		{
			"bufferView":61,
			"componentType":5126,
			"count":288,
			"type":"VEC3"
		},
		{
			"bufferView":62,
			"componentType":5126,
			"count":288,
			"type":"VEC2"
		},
		{
			"bufferView":63,
			"componentType":5123,
			"count":504,
			"type":"SCALAR"
		},
		{
			"bufferView":64,
			"componentType":5126,
			"count":24,
			"max":[
				1,
				1,
				1
			],
			"min":[
				-1,
				-1,
				-1
			],
			"type":"VEC3"
		},
		{
			"bufferView":65,
			"componentType":5126,
			"count":24,
			"type":"VEC3"
		},
		{
			"bufferView":66,
			"componentType":5126,
			"count":24,
			"type":"VEC2"
		},
		{
			"bufferView":67,
			"componentType":5126,
			"count":24,
			"type":"VEC4"
		},
		{
			"bufferView":68,
			"componentType":5123,
			"count":36,
			"type":"SCALAR"
		}
	],
	"bufferViews":[
		{
			"buffer":0,
			"byteLength":2880,
			"byteOffset":0,
			"target":34962
		},
		{
			"buffer":0,
			"byteLength":2880,
			"byteOffset":2880,
			"target":34962
		},
		{
			"buffer":0,
			"byteLength":1920,
			"byteOffset":5760,
			"target":34962
		},
		{
			"buffer":0,
			"byteLength":696,
			"byteOffset":7680,
			"target":34963
		},
		{
			"buffer":0,
			"byteLength":1800,
			"byteOffset":8376,
			"target":34962
		},
		{
			"buffer":0,
			"byteLength":1800,
			"byteOffset":10176,
			"target":34962
		},
		{
			"buffer":0,
			"byteLength":1200,
			"byteOffset":11976,
			"target":34962
		},
		{
			"buffer":0,
			"byteLength":456,
			"byteOffset":13176,
			"target":34963
		},
		{
			"buffer":0,
			"byteLength":7632,
			"byteOffset":13632,
			"target":34962
		},
		{
			"buffer":0,
			"byteLength":7632,
			"byteOffset":21264,
			"target":34962
		},
		{
			"buffer":0,
			"byteLength":5088,
			"byteOffset":28896,
			"target":34962
		},
		{
			"buffer":0,
			"byteLength":2808,
			"byteOffset":33984,
			"target":34963
		},
		{
			"buffer":0,
			"byteLength":3408,
			"byteOffset":36792,
			"target":34962
		},
		{
			"buffer":0,
			"byteLength":3408,
			"byteOffset":40200,
			"target":34962
		},
		{
			"buffer":0,
			"byteLength":2272,
			"byteOffset":43608,
			"target":34962
		},
		{
			"buffer":0,
			"byteLength":1056,
			"byteOffset":45880,
			"target":34963
		},
		{
			"buffer":0,
			"byteLength":1800,
			"byteOffset":46936,
			"target":34962
		},
		{
			"buffer":0,
			"byteLength":1800,
			"byteOffset":48736,
			"target":34962
		},
		{
			"buffer":0,
			"byteLength":1200,
			"byteOffset":50536,
			"target":34962
		},
		{
			"buffer":0,
			"byteLength":1488,
			"byteOffset":51736,
			"target":34962
		},
		{
			"buffer":0,
			"byteLength":1488,
			"byteOffset":53224,
			"target":34962
		},
		{
			"buffer":0,
			"byteLength":992,
			"byteOffset":54712,
			"target":34962
		},
		{
			"buffer":0,
			"byteLength":1984,
			"byteOffset":55704,
			"target":34962
		},
		{
			"buffer":0,
			"byteLength":432,
			"byteOffset":57688,
			"target":34963
		},
		{
			"buffer":0,
			"byteLength":2880,
			"byteOffset":58120,
			"target":34962
		},
		{
			"buffer":0,
			"byteLength":2880,
			"byteOffset":61000,
			"target":34962
		},
		{
			"buffer":0,
			"byteLength":1920,
			"byteOffset":63880,
			"target":34962
		},
		{
			"buffer":0,
			"byteLength":2880,
			"byteOffset":65800,
			"target":34962
		},
		{
			"buffer":0,
			"byteLength":2880,
			"byteOffset":68680,
			"target":34962
		},
		{
			"buffer":0,
			"byteLength":1920,
			"byteOffset":71560,
			"target":34962
		},
		{
			"buffer":0,
			"byteLength":2880,
			"byteOffset":73480,
			"target":34962
		},
		{
			"buffer":0,
			"byteLength":2880,
			"byteOffset":76360,
			"target":34962
		},
		{
			"buffer":0,
			"byteLength":1920,
			"byteOffset":79240,
			"target":34962
		},
		{
			"buffer":0,
			"byteLength":2880,
			"byteOffset":81160,
			"target":34962
		},
		{
			"buffer":0,
			"byteLength":2880,
			"byteOffset":84040,
			"target":34962
		},
		{
			"buffer":0,
			"byteLength":1920,
			"byteOffset":86920,
			"target":34962
		},
		{
			"buffer":0,
			"byteLength":2880,
			"byteOffset":88840,
			"target":34962
		},
		{
			"buffer":0,
			"byteLength":2880,
			"byteOffset":91720,
			"target":34962
		},
		{
			"buffer":0,
			"byteLength":1920,
			"byteOffset":94600,
			"target":34962
		},
		{
			"buffer":0,
			"byteLength":2880,
			"byteOffset":96520,
			"target":34962
		},
		{
			"buffer":0,
			"byteLength":2880,
			"byteOffset":99400,
			"target":34962
		},
		{
			"buffer":0,
			"byteLength":1920,
			"byteOffset":102280,
			"target":34962
		},
		{
			"buffer":0,
			"byteLength":2880,
			"byteOffset":104200,
			"target":34962
		},
		{
			"buffer":0,
			"byteLength":2880,
			"byteOffset":107080,
			"target":34962
		},
		{
			"buffer":0,
			"byteLength":1920,
			"byteOffset":109960,
			"target":34962
		},
		{
			"buffer":0,
			"byteLength":2880,
			"byteOffset":111880,
			"target":34962
		},
		{
			"buffer":0,
			"byteLength":2880,
			"byteOffset":114760,
			"target":34962
		},
		{
			"buffer":0,
			"byteLength":1920,
			"byteOffset":117640,
			"target":34962
		},
		{
			"buffer":0,
			"byteLength":2880,
			"byteOffset":119560,
			"target":34962
		},
		{
			"buffer":0,
			"byteLength":2880,
			"byteOffset":122440,
			"target":34962
		},
		{
			"buffer":0,
			"byteLength":1920,
			"byteOffset":125320,
			"target":34962
		},
		{
			"buffer":0,
			"byteLength":2880,
			"byteOffset":127240,
			"target":34962
		},
		{
			"buffer":0,
			"byteLength":2880,
			"byteOffset":130120,
			"target":34962
		},
		{
			"buffer":0,
			"byteLength":1920,
			"byteOffset":133000,
			"target":34962
		},
		{
			"buffer":0,
			"byteLength":2880,
			"byteOffset":134920,
			"target":34962
		},
		{
			"buffer":0,
			"byteLength":2880,
			"byteOffset":137800,
			"target":34962
		},
		{
			"buffer":0,
			"byteLength":1920,
			"byteOffset":140680,
			"target":34962
		},
		{
			"buffer":0,
			"byteLength":2880,
			"byteOffset":142600,
			"target":34962
		},
		{
			"buffer":0,
			"byteLength":2880,
			"byteOffset":145480,
			"target":34962
		},
		{
			"buffer":0,
			"byteLength":1920,
			"byteOffset":148360,
			"target":34962
		},
		{
			"buffer":0,
			"byteLength":3456,
			"byteOffset":150280,
			"target":34962
		},
		{
			"buffer":0,
			"byteLength":3456,
			"byteOffset":153736,
			"target":34962
		},
		{
			"buffer":0,
			"byteLength":2304,
			"byteOffset":157192,
			"target":34962
		},
		{
			"buffer":0,
			"byteLength":1008,
			"byteOffset":159496,
			"target":34963
		},
		{
			"buffer":0,
			"byteLength":288,
			"byteOffset":160504,
			"target":34962
		},
		{
			"buffer":0,
			"byteLength":288,
			"byteOffset":160792,
			"target":34962
		},
		{
			"buffer":0,
			"byteLength":192,
			"byteOffset":161080,
			"target":34962
		},
		{
			"buffer":0,
			"byteLength":384,
			"byteOffset":161272,
			"target":34962
		},
		{
			"buffer":0,
			"byteLength":72,
			"byteOffset":161656,
			"target":34963
		}
	],
	"buffers":[
		{
			"byteLength":161728,
			"uri":"pool_demo-01a0899fba18d6b456806580a42aed82.bin"
		}
	]
}
