{
	"asset":{
		"generator":"Khronos glTF Blender I/O v4.1.62",
		"version":"2.0"
	},
	"scene":0,
	"scenes":[
		{
			"extras":{
				"bc":{
					"snap":{
						"hit":false
					}
				}
			},
			"name":"Scene",
			"nodes":[
				0
			]
		}
	],
	"nodes":[
		{
			"mesh":0,
			"name":"Bola ruleta",
			"scale":[
				0.5763071775436401,
				0.5763071775436401,
				0.5763071775436401
			]
		}
	],
	"meshes":[
		{
			"name":"Icosphere",
			"primitives":[
				{
					"attributes":{
						"POSITION":0,
						"NORMAL":1,
						"TEXCOORD_0":2
					},
					"indices":3
				},
				{
					"attributes":{
						"POSITION":4,
						"NORMAL":5,
						"TEXCOORD_0":6
					},
					"indices":7
				}
			]
		}
	],
	"accessors":[
		{
			"bufferView":0,
			"componentType":5126,
			"count":999,
			"max":[
				0.8919664621353149,
				1,
				0.9999999403953552
			],
			"min":[
				-0.9999999403953552,
				-1,
				-0.9999999403953552
			],
			"type":"VEC3"
		},
		{
			"bufferView":1,
			"componentType":5126,
			"count":999,
			"type":"VEC3"
		},
		{
			"bufferView":2,
			"componentType":5126,
			"count":999,
			"type":"VEC2"
		},
		{
			"bufferView":3,
			"componentType":5123,
			"count":1125,
			"type":"SCALAR"
		},
		{
			"bufferView":4,
			"componentType":5126,
			"count":630,
			"max":[
				1.027198314666748,
				0.9501022696495056,
				0.9275287389755249
			],
			"min":[
				-0.8853099346160889,
				-0.9574219584465027,
				-0.9393514394760132
			],
			"type":"VEC3"
		},
		{
			"bufferView":5,
			"componentType":5126,
			"count":630,
			"type":"VEC3"
		},
		{
			"bufferView":6,
			"componentType":5126,
			"count":630,
			"type":"VEC2"
		},
		{
			"bufferView":7,
			"componentType":5123,
			"count":1026,
			"type":"SCALAR"
		}
	],
	"bufferViews":[
		{
			"buffer":0,
			"byteLength":11988,
			"byteOffset":0,
			"target":34962
		},
		{
			"buffer":0,
			"byteLength":11988,
			"byteOffset":11988,
			"target":34962
		},
		{
			"buffer":0,
			"byteLength":7992,
			"byteOffset":23976,
			"target":34962
		},
		{
			"buffer":0,
			"byteLength":2250,
			"byteOffset":31968,
			"target":34963
		},
		{
			"buffer":0,
			"byteLength":7560,
			"byteOffset":34220,
			"target":34962
		},
		{
			"buffer":0,
			"byteLength":7560,
			"byteOffset":41780,
			"target":34962
		},
		{
			"buffer":0,
			"byteLength":5040,
			"byteOffset":49340,
			"target":34962
		},
		{
			"buffer":0,
			"byteLength":2052,
			"byteOffset":54380,
			"target":34963
		}
	],
	"buffers":[
		{
			"byteLength":56432,
			"uri":"ruleta-7f723c821929efd6c0afa4381777d926.bin"
		}
	]
}
