{
	"asset":{
		"generator":"Khronos glTF Blender I/O v4.1.62",
		"version":"2.0"
	},
	"scene":0,
	"scenes":[
		{
			"name":"Scene",
			"nodes":[
				0
			]
		}
	],
	"nodes":[
		{
			"mesh":0,
			"name":"Cylinder",
			"rotation":[
				0.7071068286895752,
				0,
				0,
				0.7071068286895752
			],
			"scale":[
				0.031600140035152435,
				0.6610720157623291,
				0.031600140035152435
			]
		}
	],
	"materials":[
		{
			"doubleSided":true,
			"name":"Material.001",
			"pbrMetallicRoughness":{
				"baseColorFactor":[
					0,
					0,
					0,
					1
				],
				"metallicFactor":0,
				"roughnessFactor":0.5
			}
		},
		{
			"doubleSided":true,
			"name":"Material.003",
			"pbrMetallicRoughness":{
				"baseColorFactor":[
					0.04799327999353409,
					0.09979081153869629,
					0.12735946476459503,
					1
				],
				"metallicFactor":0
			}
		}
	],
	"meshes":[
		{
			"name":"Cylinder.002",
			"primitives":[
				{
					"attributes":{
						"POSITION":0,
						"NORMAL":1,
						"TEXCOORD_0":2
					},
					"indices":3,
					"material":0
				},
				{
					"attributes":{
						"POSITION":4,
						"NORMAL":5,
						"TEXCOORD_0":6
					},
					"indices":7
				},
				{
					"attributes":{
						"POSITION":8,
						"NORMAL":9,
						"TEXCOORD_0":10
					},
					"indices":11,
					"material":1
				}
			]
		}
	],
	"accessors":[
		{
			"bufferView":0,
			"componentType":5126,
			"count":161,
			"max":[
				0.9749279022216797,
				1.0166971683502197,
				0.9009688496589661
			],
			"min":[
				-0.9749279022216797,
				-1.0248271226882935,
				-1
			],
			"type":"VEC3"
		},
		{
			"bufferView":1,
			"componentType":5126,
			"count":161,
			"type":"VEC3"
		},
		{
			"bufferView":2,
			"componentType":5126,
			"count":161,
			"type":"VEC2"
		},
		{
			"bufferView":3,
			"componentType":5123,
			"count":267,
			"type":"SCALAR"
		},
		{
			"bufferView":4,
			"componentType":5126,
			"count":56,
			"max":[
				0.7495979070663452,
				0.9387809634208679,
				0.6927326917648315
			],
			"min":[
				-0.7495979070663452,
				-0.19257156550884247,
				-0.7688753008842468
			],
			"type":"VEC3"
		},
		{
			"bufferView":5,
			"componentType":5126,
			"count":56,
			"type":"VEC3"
		},
		{
			"bufferView":6,
			"componentType":5126,
			"count":56,
			"type":"VEC2"
		},
		{
			"bufferView":7,
			"componentType":5123,
			"count":84,
			"type":"SCALAR"
		},
		{
			"bufferView":8,
			"componentType":5126,
			"count":35,
			"max":[
				0.26211845874786377,
				1.0237650871276855,
				0.24223104119300842
			],
			"min":[
				-0.26211845874786377,
				1.0166971683502197,
				-0.26886218786239624
			],
			"type":"VEC3"
		},
		{
			"bufferView":9,
			"componentType":5126,
			"count":35,
			"type":"VEC3"
		},
		{
			"bufferView":10,
			"componentType":5126,
			"count":35,
			"type":"VEC2"
		},
		{
			"bufferView":11,
			"componentType":5123,
			"count":57,
			"type":"SCALAR"
		}
	],
	"bufferViews":[
		{
			"buffer":0,
			"byteLength":1932,
			"byteOffset":0,
			"target":34962
		},
		{
			"buffer":0,
			"byteLength":1932,
			"byteOffset":1932,
			"target":34962
		},
		{
			"buffer":0,
			"byteLength":1288,
			"byteOffset":3864,
			"target":34962
		},
		{
			"buffer":0,
			"byteLength":534,
			"byteOffset":5152,
			"target":34963
		},
		{
			"buffer":0,
			"byteLength":672,
			"byteOffset":5688,
			"target":34962
		},
		{
			"buffer":0,
			"byteLength":672,
			"byteOffset":6360,
			"target":34962
		},
		{
			"buffer":0,
			"byteLength":448,
			"byteOffset":7032,
			"target":34962
		},
		{
			"buffer":0,
			"byteLength":168,
			"byteOffset":7480,
			"target":34963
		},
		{
			"buffer":0,
			"byteLength":420,
			"byteOffset":7648,
			"target":34962
		},
		{
			"buffer":0,
			"byteLength":420,
			"byteOffset":8068,
			"target":34962
		},
		{
			"buffer":0,
			"byteLength":280,
			"byteOffset":8488,
			"target":34962
		},
		{
			"buffer":0,
			"byteLength":114,
			"byteOffset":8768,
			"target":34963
		}
	],
	"buffers":[
		{
			"byteLength":8884,
			"uri":"palo_pool.bin"
		}
	]
}
