{
	"asset":{
		"generator":"Khronos glTF Blender I/O v4.1.62",
		"version":"2.0"
	},
	"scene":0,
	"scenes":[
		{
			"name":"Scene",
			"nodes":[
				0
			]
		}
	],
	"nodes":[
		{
			"mesh":0,
			"name":"Cylinder",
			"rotation":[
				0.70710688829422,
				0,
				0,
				0.7071066498756409
			],
			"scale":[
				0.031600140035152435,
				0.6610720753669739,
				0.031600143760442734
			]
		}
	],
	"materials":[
		{
			"doubleSided":true,
			"name":"Material.002",
			"pbrMetallicRoughness":{
				"baseColorFactor":[
					0.3080396056175232,
					0.04057307168841362,
					0.0009546766523271799,
					1
				],
				"metallicFactor":0,
				"roughnessFactor":0.5
			}
		},
		{
			"doubleSided":true,
			"name":"Material.003",
			"pbrMetallicRoughness":{
				"baseColorFactor":[
					0,
					0,
					0,
					1
				],
				"metallicFactor":0,
				"roughnessFactor":0.5
			}
		},
		{
			"doubleSided":true,
			"name":"Material.004",
			"pbrMetallicRoughness":{
				"baseColorFactor":[
					0.11116714775562286,
					0.13805116713047028,
					0.2247011512517929,
					1
				],
				"metallicFactor":0,
				"roughnessFactor":0.5
			}
		}
	],
	"meshes":[
		{
			"name":"Cylinder.002",
			"primitives":[
				{
					"attributes":{
						"POSITION":0,
						"NORMAL":1,
						"TEXCOORD_0":2
					},
					"indices":3,
					"material":0
				},
				{
					"attributes":{
						"POSITION":4,
						"NORMAL":5,
						"TEXCOORD_0":6
					},
					"indices":7,
					"material":1
				},
				{
					"attributes":{
						"POSITION":8,
						"NORMAL":9,
						"TEXCOORD_0":10
					},
					"indices":11,
					"material":2
				}
			]
		}
	],
	"accessors":[
		{
			"bufferView":0,
			"componentType":5126,
			"count":91,
			"max":[
				0.9749279022216797,
				1,
				0.9009688496589661
			],
			"min":[
				-0.9749279022216797,
				-1.0248271226882935,
				-1
			],
			"type":"VEC3"
		},
		{
			"bufferView":1,
			"componentType":5126,
			"count":91,
			"type":"VEC3"
		},
		{
			"bufferView":2,
			"componentType":5126,
			"count":91,
			"type":"VEC2"
		},
		{
			"bufferView":3,
			"componentType":5123,
			"count":183,
			"type":"SCALAR"
		},
		{
			"bufferView":4,
			"componentType":5126,
			"count":28,
			"max":[
				0.41678568720817566,
				1.0166971683502197,
				0.3851678967475891
			],
			"min":[
				-0.41678568720817566,
				1,
				-0.42750415205955505
			],
			"type":"VEC3"
		},
		{
			"bufferView":5,
			"componentType":5126,
			"count":28,
			"type":"VEC3"
		},
		{
			"bufferView":6,
			"componentType":5126,
			"count":28,
			"type":"VEC2"
		},
		{
			"bufferView":7,
			"componentType":5123,
			"count":42,
			"type":"SCALAR"
		},
		{
			"bufferView":8,
			"componentType":5126,
			"count":35,
			"max":[
				0.26211845874786377,
				1.0237650871276855,
				0.24223104119300842
			],
			"min":[
				-0.26211845874786377,
				1.0166971683502197,
				-0.26886218786239624
			],
			"type":"VEC3"
		},
		{
			"bufferView":9,
			"componentType":5126,
			"count":35,
			"type":"VEC3"
		},
		{
			"bufferView":10,
			"componentType":5126,
			"count":35,
			"type":"VEC2"
		},
		{
			"bufferView":11,
			"componentType":5123,
			"count":57,
			"type":"SCALAR"
		}
	],
	"bufferViews":[
		{
			"buffer":0,
			"byteLength":1092,
			"byteOffset":0,
			"target":34962
		},
		{
			"buffer":0,
			"byteLength":1092,
			"byteOffset":1092,
			"target":34962
		},
		{
			"buffer":0,
			"byteLength":728,
			"byteOffset":2184,
			"target":34962
		},
		{
			"buffer":0,
			"byteLength":366,
			"byteOffset":2912,
			"target":34963
		},
		{
			"buffer":0,
			"byteLength":336,
			"byteOffset":3280,
			"target":34962
		},
		{
			"buffer":0,
			"byteLength":336,
			"byteOffset":3616,
			"target":34962
		},
		{
			"buffer":0,
			"byteLength":224,
			"byteOffset":3952,
			"target":34962
		},
		{
			"buffer":0,
			"byteLength":84,
			"byteOffset":4176,
			"target":34963
		},
		{
			"buffer":0,
			"byteLength":420,
			"byteOffset":4260,
			"target":34962
		},
		{
			"buffer":0,
			"byteLength":420,
			"byteOffset":4680,
			"target":34962
		},
		{
			"buffer":0,
			"byteLength":280,
			"byteOffset":5100,
			"target":34962
		},
		{
			"buffer":0,
			"byteLength":114,
			"byteOffset":5380,
			"target":34963
		}
	],
	"buffers":[
		{
			"byteLength":5496,
			"uri":"palo_pool.bin"
		}
	]
}
